<svg width="41" height="40" viewBox="0 0 41 40" fill="none" xmlns="http://www.w3.org/2000/svg">
<path d="M20.9197 0C9.87549 0 0.839355 9.01606 0.839355 20.1205C0.839355 30.1607 8.18874 38.494 17.7871 40V25.9438H12.6867V20.1205H17.7871V15.6827C17.7871 10.6426 20.7791 7.87148 25.3775 7.87148C27.5662 7.87148 29.8554 8.253 29.8554 8.253V13.2128H27.3253C24.8353 13.2128 24.0522 14.759 24.0522 16.3454V20.1205H29.6345L28.7309 25.9438H24.0522V40C28.7839 39.2526 33.0927 36.8384 36.2006 33.1928C39.3084 29.5474 41.0108 24.9109 41 20.1205C41 9.01606 31.9638 0 20.9197 0Z" fill="#106AFE"/>
</svg>
