<svg width="36" height="40" viewBox="0 0 36 40" fill="none" xmlns="http://www.w3.org/2000/svg">
<path d="M28 15C32.1423 15 35.5 11.6421 35.5 7.5C35.5 3.35788 32.1423 0 28 0C23.8579 0 20.5 3.35788 20.5 7.5C20.5 8.05927 20.5612 8.60423 20.6773 9.12857L12.6715 14.1322C11.39 13.1106 9.7663 12.5 8 12.5C3.85788 12.5 0.5 15.8579 0.5 20C0.5 24.1421 3.85788 27.5 8 27.5C9.7663 27.5 11.39 26.8895 12.6715 25.8678L20.6773 30.8715C20.5612 31.3958 20.5 31.9408 20.5 32.5C20.5 36.6423 23.8579 40 28 40C32.1423 40 35.5 36.6423 35.5 32.5C35.5 28.3577 32.1423 25 28 25C26.2337 25 24.61 25.6105 23.3285 26.6322L15.3227 21.6286C15.4388 21.1042 15.5 20.5593 15.5 20C15.5 19.4407 15.4388 18.8958 15.3227 18.3714L23.3285 13.3678C24.61 14.3894 26.2337 15 28 15Z" fill="white"/>
</svg>
