<svg width="41" height="40" viewBox="0 0 41 40" fill="none" xmlns="http://www.w3.org/2000/svg">
<path fill-rule="evenodd" clip-rule="evenodd" d="M20.5478 0C9.52214 0 0.553589 8.97106 0.553589 19.9998C0.553589 24.3737 1.96412 28.43 4.36193 31.7225L1.86991 39.1532L9.55729 36.6963C12.7191 38.7892 16.4923 40 20.5594 40C31.585 40 40.5536 31.0286 40.5536 20.0002C40.5536 8.97142 31.585 0.000330607 20.5594 0.000330607L20.5478 0ZM14.9643 10.159C14.5765 9.23023 14.2826 9.19506 13.6951 9.17117C13.495 9.15955 13.2721 9.14795 13.025 9.14795C12.2606 9.14795 11.4615 9.37127 10.9795 9.86504C10.392 10.4647 8.93427 11.8636 8.93427 14.7327C8.93427 17.6017 11.0266 20.3764 11.3085 20.7647C11.6025 21.1523 15.3876 27.1253 21.2646 29.5596C25.8605 31.4643 27.2243 31.2878 28.2703 31.0644C29.7983 30.7353 31.7144 29.606 32.1965 28.2425C32.6785 26.8784 32.6785 25.7143 32.5371 25.4674C32.3961 25.2205 32.008 25.0798 31.4205 24.7855C30.833 24.4915 27.9764 23.0806 27.4357 22.8924C26.9065 22.6926 26.4013 22.7633 26.0019 23.3278C25.4376 24.1155 24.8853 24.9153 24.4384 25.3971C24.0858 25.7734 23.5095 25.8205 23.0279 25.6204C22.3813 25.3503 20.5714 24.7148 18.3378 22.7278C16.6097 21.1878 15.4344 19.2715 15.0937 18.6954C14.7527 18.1077 15.0585 17.7663 15.3285 17.449C15.6224 17.0844 15.9045 16.8259 16.1984 16.4847C16.4923 16.1439 16.6568 15.9674 16.8449 15.5676C17.045 15.1796 16.9036 14.7798 16.7626 14.4858C16.6217 14.1918 15.4463 11.3228 14.9643 10.159Z" fill="#67C15E"/>
</svg>
