<svg width="58" height="40" viewBox="0 0 58 40" fill="none" xmlns="http://www.w3.org/2000/svg">
<path fill-rule="evenodd" clip-rule="evenodd" d="M23.4729 27.3889V11.3551C29.1649 14.0335 33.5733 16.6209 38.7872 19.4104C34.4869 21.7953 29.1649 24.4712 23.4729 27.3889ZM55.1945 3.38081C54.2126 2.08721 52.5392 1.08025 50.7576 0.746882C45.521 -0.247546 12.8516 -0.250374 7.61781 0.746882C6.18911 1.01471 4.91691 1.66209 3.82404 2.66792C-0.780803 6.94192 0.662136 29.862 1.77208 33.5747C2.23882 35.1817 2.8422 36.3407 3.60209 37.1015C4.58111 38.1073 5.92156 38.7999 7.46125 39.1104C11.773 40.0023 33.986 40.5009 50.6665 39.2444C52.2033 38.9765 53.5637 38.2617 54.6367 37.2131C58.8943 32.9562 58.604 8.74895 55.1945 3.38081Z" fill="#FF0739"/>
</svg>
