<svg width="41" height="40" viewBox="0 0 41 40" fill="none" xmlns="http://www.w3.org/2000/svg">
<g clip-path="url(#clip0_23_56)">
<path d="M32.0297 -0.312378H9.17261C4.43875 -0.312378 0.601196 3.52517 0.601196 8.25903V31.1161C0.601196 35.85 4.43875 39.6875 9.17261 39.6875H32.0297C36.7636 39.6875 40.6011 35.85 40.6011 31.1161V8.25903C40.6011 3.52517 36.7636 -0.312378 32.0297 -0.312378Z" fill="url(#paint0_radial_23_56)"/>
<path d="M32.0297 -0.312378H9.17261C4.43875 -0.312378 0.601196 3.52517 0.601196 8.25903V31.1161C0.601196 35.85 4.43875 39.6875 9.17261 39.6875H32.0297C36.7636 39.6875 40.6011 35.85 40.6011 31.1161V8.25903C40.6011 3.52517 36.7636 -0.312378 32.0297 -0.312378Z" fill="url(#paint1_radial_23_56)"/>
<path d="M32.0297 -0.312378H9.17261C4.43875 -0.312378 0.601196 3.52517 0.601196 8.25903V31.1161C0.601196 35.85 4.43875 39.6875 9.17261 39.6875H32.0297C36.7636 39.6875 40.6011 35.85 40.6011 31.1161V8.25903C40.6011 3.52517 36.7636 -0.312378 32.0297 -0.312378Z" fill="url(#paint2_radial_23_56)"/>
<path d="M30.3156 13C30.3156 14.1045 29.2922 15 28.0298 15C26.7675 15 25.7441 14.1045 25.7441 13C25.7441 11.8954 26.7675 11 28.0298 11C29.2922 11 30.3156 11.8954 30.3156 13Z" fill="#E5E5E5"/>
<path fill-rule="evenodd" clip-rule="evenodd" d="M20.6011 25.9733C24.0726 25.9733 26.8868 23.159 26.8868 19.6876C26.8868 16.2161 24.0726 13.4019 20.6011 13.4019C17.1297 13.4019 14.3154 16.2161 14.3154 19.6876C14.3154 23.159 17.1297 25.9733 20.6011 25.9733ZM20.6011 23.459C22.6841 23.459 24.3726 21.7705 24.3726 19.6876C24.3726 17.6046 22.6841 15.9161 20.6011 15.9161C18.5182 15.9161 16.8297 17.6046 16.8297 19.6876C16.8297 21.7705 18.5182 23.459 20.6011 23.459Z" fill="#E5E5E5"/>
<path fill-rule="evenodd" clip-rule="evenodd" d="M6.31543 19.1161C6.31543 14.3157 6.31543 11.9154 7.24966 10.0819C8.07143 8.46911 9.38268 7.15785 10.9955 6.33608C12.829 5.40186 15.2293 5.40186 20.0297 5.40186H21.1725C25.973 5.40186 28.3732 5.40186 30.2067 6.33608C31.8195 7.15785 33.1308 8.46911 33.9525 10.0819C34.8868 11.9154 34.8868 14.3157 34.8868 19.1161V20.259C34.8868 25.0594 34.8868 27.4597 33.9525 29.2931C33.1308 30.9059 31.8195 32.2172 30.2067 33.0389C28.3732 33.9732 25.973 33.9732 21.1725 33.9732H20.0297C15.2293 33.9732 12.829 33.9732 10.9955 33.0389C9.38268 32.2172 8.07143 30.9059 7.24966 29.2931C6.31543 27.4597 6.31543 25.0594 6.31543 20.259V19.1161ZM20.0297 8.25899H21.1725C23.62 8.25899 25.2835 8.26122 26.5695 8.36628C27.8222 8.46862 28.4628 8.65412 28.9097 8.88181C29.9848 9.42966 30.8589 10.3038 31.4068 11.379C31.6345 11.8258 31.8201 12.4664 31.9224 13.7191C32.0274 15.0051 32.0297 16.6687 32.0297 19.1161V20.259C32.0297 22.7064 32.0274 24.37 31.9224 25.656C31.8201 26.9087 31.6345 27.5492 31.4068 27.9961C30.8589 29.0712 29.9848 29.9454 28.9097 30.4932C28.4628 30.7209 27.8222 30.9065 26.5695 31.0088C25.2835 31.1138 23.62 31.1161 21.1725 31.1161H20.0297C17.5823 31.1161 15.9187 31.1138 14.6327 31.0088C13.38 30.9065 12.7394 30.7209 12.2926 30.4932C11.2174 29.9454 10.3432 29.0712 9.79538 27.9961C9.56769 27.5492 9.38219 26.9087 9.27985 25.656C9.17479 24.37 9.17257 22.7064 9.17257 20.259V19.1161C9.17257 16.6687 9.17479 15.0051 9.27985 13.7191C9.38219 12.4664 9.56769 11.8258 9.79538 11.379C10.3432 10.3038 11.2174 9.42966 12.2926 8.88181C12.7394 8.65412 13.38 8.46862 14.6327 8.36628C15.9187 8.26122 17.5823 8.25899 20.0297 8.25899Z" fill="#E5E5E5"/>
</g>
<defs>
<radialGradient id="paint0_radial_23_56" cx="0" cy="0" r="1" gradientUnits="userSpaceOnUse" gradientTransform="translate(14.8869 29.6876) rotate(-55.3758) scale(36.4565)">
<stop stop-color="#B13589"/>
<stop offset="0.79309" stop-color="#C62F94"/>
<stop offset="1" stop-color="#8A3AC8"/>
</radialGradient>
<radialGradient id="paint1_radial_23_56" cx="0" cy="0" r="1" gradientUnits="userSpaceOnUse" gradientTransform="translate(13.4583 41.1161) rotate(-65.1363) scale(32.2774)">
<stop stop-color="#E0E8B7"/>
<stop offset="0.444662" stop-color="#FB8A2E"/>
<stop offset="0.71474" stop-color="#E2425C"/>
<stop offset="1" stop-color="#E2425C" stop-opacity="0"/>
</radialGradient>
<radialGradient id="paint2_radial_23_56" cx="0" cy="0" r="1" gradientUnits="userSpaceOnUse" gradientTransform="translate(-1.54166 1.11619) rotate(-8.1301) scale(55.5583 11.8833)">
<stop offset="0.156701" stop-color="#406ADC"/>
<stop offset="0.467799" stop-color="#6A45BE"/>
<stop offset="1" stop-color="#6A45BE" stop-opacity="0"/>
</radialGradient>
<clipPath id="clip0_23_56">
<rect width="40" height="40" fill="white" transform="translate(0.601196)"/>
</clipPath>
</defs>
</svg>
